<svg id="Capa_1" enable-background="new 0 0 512 512" viewBox="0 0 512 512" xmlns="http://www.w3.org/2000/svg"><g><path d="m434.273.056c-.006 0-.012-.001-.017-.001-58.328.003-271.189-.009-272.344.017-.109.002-.215-.007-.324-.003-40.122 1.79-71.588 35.424-71.588 75.789v286.136h-15c-41.355 0-75 33.645-75 75 0 42.594 35.328 76.658 78.061 74.938 253.65.067 240.169.107 242.473-.021 40.405-1.865 71.466-35.826 71.466-75.782v-285.37l45.132-.766c41.296-.07 74.868-33.688 74.868-75 0-42.517-35.173-76.476-77.727-74.937zm-177.349 481.876c-139.858.004-179.329-.008-179.848.015-25.939 1.159-47.076-19.505-47.076-44.954 0-24.813 20.187-45 45-45h182.036c-9.436 12.543-15.036 28.131-15.036 45 0 16.48 5.23 32.058 14.924 44.939zm105.076-406.074v360.271c0 24.515-18.691 44.573-42.613 45.803h-4.779c-23.292-1.204-42.608-20.415-42.608-44.939 0-24.813 20.187-45 45-45 8.284 0 15-6.716 15-15s-6.716-15-15-15h-197v-286.135c0-24.547 18.745-44.622 42.713-45.803h214.549c-9.882 13.163-15.262 29.139-15.262 45.803zm75 44.135c-.085 0-.169.001-.254.002l-44.746.76v-44.897c0-25.181 19.776-45.864 45.008-45.864 24.635 0 44.992 19.899 44.992 45 0 24.813-20.187 44.999-45 44.999z" fill="#000000" style="fill: rgb(255, 255, 255);"></path><path d="m200.443 176.6c5.859 5.859 15.355 5.858 21.213 0 5.858-5.857 5.858-15.355 0-21.213l-19.393-19.394 19.393-19.394c5.858-5.857 5.858-15.355 0-21.213-5.857-5.857-15.355-5.857-21.213 0l-30 30c-5.858 5.857-5.858 15.355 0 21.213z" fill="#000000" style="fill: rgb(255, 255, 255);"></path><path d="m260.394 176.6c5.858 5.859 15.355 5.858 21.213 0l30-30c5.858-5.857 5.858-15.355 0-21.213l-30-30c-5.857-5.857-15.355-5.857-21.213 0s-5.858 15.355 0 21.213l19.393 19.394-19.393 19.394c-5.858 5.856-5.858 15.354 0 21.212z" fill="#000000" style="fill: rgb(255, 255, 255);"></path><path d="m301 210.993h-119.95c-8.284 0-15 6.716-15 15s6.716 15 15 15h119.95c8.284 0 15-6.716 15-15s-6.716-15-15-15z" fill="#000000" style="fill: rgb(255, 255, 255);"></path><path d="m301 270.993h-120c-8.284 0-15 6.716-15 15s6.716 15 15 15h120c8.284 0 15-6.716 15-15s-6.716-15-15-15z" fill="#000000" style="fill: rgb(255, 255, 255);"></path></g></svg>